<svg xmlns="http://www.w3.org/2000/svg" viewBox="0 0 44 38"><defs><style>.cls-1{fill:#111216;}</style></defs><title>weather-wind@1x</title><g id="Layer_2" data-name="Layer 2"><g id="Weather"><g id="Wind_2x.png" data-name="Wind@2x.png"><path class="cls-1" d="M5,12H20A6,6,0,0,0,20,0H19a1,1,0,0,0,0,2h1a4,4,0,0,1,0,8H5a1,1,0,0,0,0,2Zm31,0a4,4,0,0,0-4-4H31a1,1,0,0,0,0,2h1a2,2,0,0,1,0,4H1a1,1,0,0,0,0,2H32A4,4,0,0,0,36,12Zm2,6H5a1,1,0,0,0,0,2H38a4,4,0,0,1,0,8H37a1,1,0,0,0,0,2h1a6,6,0,0,0,0-12ZM24,22H9a1,1,0,0,0,0,2H24a6,6,0,0,1,0,12H23a1,1,0,0,0,0,2h1a8,8,0,0,0,0-16Z"/></g></g></g></svg>